# xmcd CD database file
#
# Track frame offsets:
#	150
#	44290
#	68750
#	96129
#	132176
#	178369
#	222784
#	266766
#	311495
#
# Disc length: 4758 seconds
#
# Revision: 0
# Processed by: cddbd v1.5.2PL0 Copyright (c) Steve Scherf et al.
# Submitted via: CDex 1.51
#
DISCID=82129409
DTITLE=Französisch lernen mit The Grooves - Travelling
DYEAR=2012
DGENRE=Jazz
TTITLE0=La valise disparue
TTITLE1=Quitter l'aeroport
TTITLE2=Les joies du traffic
TTITLE3=Changer de chambre
TTITLE4=Faire du shopping
TTITLE5=Un vrai petit dejeuner
TTITLE6=Au marche
TTITLE7=Le diner
TTITLE8=Je suis amoureux
EXTD=YEAR: 2012
EXTT0=
EXTT1=
EXTT2=
EXTT3=
EXTT4=
EXTT5=
EXTT6=
EXTT7=
EXTT8=
PLAYORDER=
